<svg xmlns="http://www.w3.org/2000/svg" width="1200" height="820" viewBox="0 0 1200 820" role="img" aria-labelledby="title desc">
<title id="title">Figure 1. Surface Energy Balance for One Week</title>
<desc id="desc">The top panel shows hourly heat flows through the hot week. The lower-left panel simplifies the sunny-hour energy split. The lower-right panel shows modelled air and surface temperatures.</desc>
<rect width="1200" height="820" fill="#ffffff"/>
<text x="56" y="48" font-family="Instrument Sans, Arial, sans-serif" font-size="30" font-weight="700" fill="#172033">Figure 1. Surface Energy Balance for One Week</text>
<text x="56" y="76" font-family="Instrument Sans, Arial, sans-serif" font-size="15" fill="#526173">Dense residential London SUEWS trial run, 14-21 August 2012</text>
<rect x="86" y="112" width="1040" height="330" fill="#fbfcfe" stroke="#dbe4ee"/>
<line x1="86" y1="442.0" x2="1126" y2="442.0" stroke="#e8edf3"/>
<text x="74" y="446.0" text-anchor="end" font-family="Arial" font-size="12" fill="#526173">-100</text>
<line x1="86" y1="390.4" x2="1126" y2="390.4" stroke="#e8edf3"/>
<text x="74" y="394.4" text-anchor="end" font-family="Arial" font-size="12" fill="#526173">0</text>
<line x1="86" y1="338.9" x2="1126" y2="338.9" stroke="#e8edf3"/>
<text x="74" y="342.9" text-anchor="end" font-family="Arial" font-size="12" fill="#526173">100</text>
<line x1="86" y1="287.3" x2="1126" y2="287.3" stroke="#e8edf3"/>
<text x="74" y="291.3" text-anchor="end" font-family="Arial" font-size="12" fill="#526173">200</text>
<line x1="86" y1="235.8" x2="1126" y2="235.8" stroke="#e8edf3"/>
<text x="74" y="239.8" text-anchor="end" font-family="Arial" font-size="12" fill="#526173">300</text>
<line x1="86" y1="184.2" x2="1126" y2="184.2" stroke="#e8edf3"/>
<text x="74" y="188.2" text-anchor="end" font-family="Arial" font-size="12" fill="#526173">400</text>
<line x1="86" y1="132.6" x2="1126" y2="132.6" stroke="#e8edf3"/>
<text x="74" y="136.6" text-anchor="end" font-family="Arial" font-size="12" fill="#526173">500</text>
<line x1="86" y1="390.4" x2="1126" y2="390.4" stroke="#7a8594"/>
<line x1="86.0" y1="442" x2="86.0" y2="448" stroke="#526173"/>
<text x="86.0" y="466" text-anchor="middle" font-family="Arial" font-size="12" fill="#526173">14 Aug</text>
<line x1="229.2" y1="442" x2="229.2" y2="448" stroke="#526173"/>
<text x="229.2" y="466" text-anchor="middle" font-family="Arial" font-size="12" fill="#526173">15 Aug</text>
<line x1="378.7" y1="442" x2="378.7" y2="448" stroke="#526173"/>
<text x="378.7" y="466" text-anchor="middle" font-family="Arial" font-size="12" fill="#526173">16 Aug</text>
<line x1="528.2" y1="442" x2="528.2" y2="448" stroke="#526173"/>
<text x="528.2" y="466" text-anchor="middle" font-family="Arial" font-size="12" fill="#526173">17 Aug</text>
<line x1="677.6" y1="442" x2="677.6" y2="448" stroke="#526173"/>
<text x="677.6" y="466" text-anchor="middle" font-family="Arial" font-size="12" fill="#526173">18 Aug</text>
<line x1="827.1" y1="442" x2="827.1" y2="448" stroke="#526173"/>
<text x="827.1" y="466" text-anchor="middle" font-family="Arial" font-size="12" fill="#526173">19 Aug</text>
<line x1="976.5" y1="442" x2="976.5" y2="448" stroke="#526173"/>
<text x="976.5" y="466" text-anchor="middle" font-family="Arial" font-size="12" fill="#526173">20 Aug</text>
<line x1="1126.0" y1="442" x2="1126.0" y2="448" stroke="#526173"/>
<text x="1126.0" y="466" text-anchor="middle" font-family="Arial" font-size="12" fill="#526173">21 Aug</text>
<text x="28" y="277.0" transform="rotate(-90 28 277.0)" text-anchor="middle" font-family="Arial" font-size="14" fill="#334155">Heat Flow (W m-2)</text>
<polyline points="86.0,402.4 92.2,401.5 98.5,400.0 104.7,399.3 110.9,396.8 117.1,387.0 123.4,379.5 129.6,335.6 135.8,250.0 142.0,192.7 148.3,224.2 154.5,270.6 160.7,175.4 167.0,212.4 173.2,257.6 179.4,269.7 185.6,308.8 191.9,332.2 198.1,384.7 204.3,412.0 210.6,415.3 216.8,414.0 223.0,412.3 229.2,412.2 235.5,411.3 241.7,409.1 247.9,407.3 254.1,404.7 260.4,399.4 266.6,383.5 272.8,370.9 279.1,371.5 285.3,349.5 291.5,333.9 297.7,358.1 304.0,367.2 310.2,343.9 316.4,287.1 322.6,354.2 328.9,353.8 335.1,329.1 341.3,337.0 347.6,385.4 353.8,412.6 360.0,414.7 366.2,413.7 372.5,413.2 378.7,412.6 384.9,411.3 391.1,410.2 397.4,410.1 403.6,408.9 409.8,404.6 416.1,383.7 422.3,344.4 428.5,308.6 434.7,258.5 441.0,280.0 447.2,269.0 453.4,291.2 459.7,250.5 465.9,256.7 472.1,247.5 478.3,254.4 484.6,325.5 490.8,388.4 497.0,413.3 503.2,416.0 509.5,413.6 515.7,412.3 521.9,411.5 528.2,410.7 534.4,410.8 540.6,411.0 546.8,411.2 553.1,411.1 559.3,409.5 565.5,398.9 571.7,378.2 578.0,338.2 584.2,331.3 590.4,300.8 596.7,235.3 602.9,156.5 609.1,132.6 615.3,152.1 621.6,165.7 627.8,223.9 634.0,289.6 640.3,355.9 646.5,406.6 652.7,420.1 658.9,419.5 665.2,417.9 671.4,416.5 677.6,416.2 683.8,416.4 690.1,417.7 696.3,419.6 702.5,420.5 708.8,417.1 715.0,394.3 721.2,336.4 727.4,276.1 733.7,223.0 739.9,173.4 746.1,146.6 752.3,129.1 758.6,128.1 764.8,178.2 771.0,184.6 777.3,238.8 783.5,280.2 789.7,339.2 795.9,389.5 802.2,412.1 808.4,412.6 814.6,411.0 820.9,409.3 827.1,408.0 833.3,406.5 839.5,405.3 845.8,404.4 852.0,403.9 858.2,401.0 864.4,381.2 870.7,336.8 876.9,281.9 883.1,229.3 889.4,204.7 895.6,247.9 901.8,323.4 908.0,267.9 914.3,190.4 920.5,189.6 926.7,227.0 932.9,288.7 939.2,354.8 945.4,391.3 951.6,412.6 957.9,415.3 964.1,414.4 970.3,412.4 976.5,410.8 982.8,410.2 989.0,409.2 995.2,408.2 1001.4,407.2 1007.7,404.6 1013.9,395.1 1020.1,377.8 1026.4,339.3 1032.6,293.0 1038.8,344.9 1045.0,334.1 1051.3,291.8 1057.5,232.7 1063.7,172.0 1070.0,212.9 1076.2,274.7 1082.4,351.5 1088.6,352.9 1094.9,391.5 1101.1,411.6 1107.3,409.1 1113.5,407.1 1119.8,406.1 1126.0,405.5" fill="none" stroke="#2f6fb0" stroke-width="2.2" stroke-linejoin="round" stroke-linecap="round"/>
<polyline points="86.0,358.5 92.2,364.8 98.5,368.2 104.7,369.5 110.9,370.1 117.1,368.8 123.4,360.5 129.6,341.0 135.8,323.0 142.0,321.5 148.3,325.3 154.5,324.7 160.7,324.3 167.0,323.9 173.2,322.7 179.4,319.5 185.6,315.5 191.9,316.6 198.1,326.3 204.3,336.7 210.6,343.8 216.8,347.1 223.0,348.7 229.2,353.8 235.5,365.1 241.7,370.1 247.9,372.8 254.1,373.8 260.4,374.3 266.6,373.3 272.8,366.7 279.1,351.2 285.3,336.9 291.5,335.8 297.7,338.7 304.0,338.3 310.2,337.9 316.4,337.7 322.6,336.7 328.9,334.2 335.1,331.0 341.3,331.9 347.6,339.6 353.8,347.8 360.0,353.4 366.2,356.0 372.5,357.3 378.7,360.4 384.9,365.2 391.1,370.2 397.4,372.8 403.6,373.8 409.8,374.4 416.1,373.3 422.3,366.7 428.5,351.3 434.7,337.0 441.0,335.9 447.2,338.9 453.4,338.4 459.7,338.1 465.9,337.8 472.1,336.8 478.3,334.3 484.6,331.1 490.8,332.0 497.0,339.7 503.2,347.9 509.5,353.5 515.7,356.1 521.9,357.4 528.2,360.5 534.4,365.2 540.6,370.2 546.8,372.8 553.1,373.8 559.3,374.4 565.5,373.3 571.7,366.7 578.0,351.3 584.2,337.0 590.4,335.9 596.7,338.8 602.9,338.4 609.1,338.0 615.3,337.8 621.6,336.8 627.8,334.3 634.0,331.1 640.3,332.0 646.5,339.7 652.7,347.9 658.9,353.5 665.2,356.1 671.4,357.4 677.6,360.6 683.8,365.3 690.1,369.9 696.3,373.2 702.5,373.5 708.8,373.3 715.0,372.2 721.2,367.8 727.4,356.5 733.7,344.6 739.9,340.6 746.1,342.0 752.3,341.8 758.6,341.4 764.8,342.6 771.0,343.7 777.3,342.5 783.5,339.4 789.7,340.8 795.9,347.1 802.2,352.8 808.4,357.5 814.6,358.7 820.9,358.3 827.1,361.3 833.3,365.3 839.5,369.9 845.8,373.2 852.0,373.5 858.2,373.3 864.4,372.2 870.7,367.8 876.9,356.5 883.1,344.6 889.4,340.6 895.6,342.0 901.8,341.8 908.0,341.4 914.3,342.6 920.5,343.7 926.7,342.5 932.9,339.4 939.2,340.8 945.4,347.1 951.6,352.8 957.9,357.5 964.1,358.7 970.3,358.3 976.5,361.2 982.8,365.2 989.0,370.2 995.2,372.8 1001.4,373.8 1007.7,374.4 1013.9,373.3 1020.1,366.7 1026.4,351.3 1032.6,337.0 1038.8,335.9 1045.0,338.9 1051.3,338.4 1057.5,338.1 1063.7,337.8 1070.0,336.8 1076.2,334.3 1082.4,331.1 1088.6,332.0 1094.9,339.7 1101.1,347.9 1107.3,353.5 1113.5,356.1 1119.8,357.4 1126.0,360.5" fill="none" stroke="#6d6d6d" stroke-width="1.8" stroke-dasharray="6 5" stroke-linejoin="round" stroke-linecap="round"/>
<polyline points="86.0,350.1 92.2,356.2 98.5,358.9 104.7,359.8 110.9,359.5 117.1,355.3 123.4,344.9 129.6,312.3 135.8,262.6 142.0,236.1 148.3,246.6 154.5,263.9 160.7,228.5 167.0,237.2 173.2,254.2 179.4,257.6 185.6,270.0 191.9,281.6 198.1,310.9 204.3,332.9 210.6,342.5 216.8,345.4 223.0,346.1 229.2,351.0 235.5,361.7 241.7,365.6 247.9,367.3 254.1,367.0 260.4,365.3 266.6,359.1 272.8,348.1 279.1,332.3 285.3,311.3 291.5,303.9 297.7,325.3 304.0,353.3 310.2,342.0 316.4,304.2 322.6,313.0 328.9,310.2 335.1,297.2 341.3,299.1 347.6,323.4 353.8,343.2 360.0,351.2 366.2,353.7 372.5,354.8 378.7,357.6 384.9,361.6 391.1,366.1 397.4,368.6 403.6,368.9 409.8,367.7 416.1,359.8 422.3,339.0 428.5,309.2 434.7,274.6 441.0,278.6 447.2,278.3 453.4,286.0 459.7,298.1 465.9,303.3 472.1,277.5 478.3,266.7 484.6,289.5 490.8,316.8 497.0,336.0 503.2,346.6 509.5,351.4 515.7,353.3 521.9,354.1 528.2,356.8 534.4,361.4 540.6,366.4 546.8,369.1 553.1,370.1 559.3,370.0 565.5,365.1 571.7,351.8 578.0,321.7 584.2,314.5 590.4,306.7 596.7,271.6 602.9,231.3 609.1,216.5 615.3,222.4 621.6,227.9 627.8,249.2 634.0,274.5 640.3,305.7 646.5,333.9 652.7,349.1 658.9,354.9 665.2,356.7 671.4,357.2 677.6,360.2 683.8,364.9 690.1,370.0 696.3,374.1 702.5,374.9 708.8,373.3 715.0,363.9 721.2,338.2 727.4,301.2 733.7,266.2 739.9,240.7 746.1,229.5 752.3,221.4 758.6,220.0 764.8,240.3 771.0,245.7 777.3,266.7 783.5,282.3 789.7,308.2 795.9,334.1 802.2,349.8 808.4,355.5 814.6,355.9 820.9,354.6 827.1,356.8 833.3,360.0 839.5,363.8 845.8,366.5 852.0,366.4 858.2,365.0 864.4,357.7 870.7,338.4 876.9,305.5 883.1,270.6 889.4,254.3 895.6,271.1 901.8,315.1 908.0,328.9 914.3,290.5 920.5,259.1 926.7,262.9 932.9,284.3 939.2,313.5 945.4,334.8 951.6,349.8 957.9,356.6 964.1,357.3 970.3,355.9 976.5,357.9 982.8,361.3 989.0,365.7 995.2,367.8 1001.4,368.3 1007.7,367.6 1013.9,363.3 1020.1,351.5 1026.4,322.9 1032.6,291.1 1038.8,305.3 1045.0,306.2 1051.3,291.0 1057.5,266.0 1063.7,238.0 1070.0,249.4 1076.2,272.3 1082.4,301.3 1088.6,305.9 1094.9,327.6 1101.1,344.4 1107.3,349.3 1113.5,350.8 1119.8,351.5 1126.0,354.2" fill="none" stroke="#d6604d" stroke-width="2.2" stroke-linejoin="round" stroke-linecap="round"/>
<polyline points="86.0,411.6 92.2,410.8 98.5,409.9 104.7,409.5 110.9,408.1 117.1,402.5 123.4,398.6 129.6,374.3 135.8,329.0 142.0,300.0 148.3,321.1 154.5,345.7 160.7,289.8 167.0,315.6 173.2,340.1 179.4,345.2 185.6,365.8 191.9,376.8 198.1,404.9 204.3,417.7 210.6,418.2 216.8,417.2 223.0,416.2 229.2,416.3 235.5,415.7 241.7,414.5 247.9,413.6 254.1,412.1 260.4,409.3 266.6,400.2 272.8,393.8 279.1,395.1 285.3,382.7 291.5,374.8 297.7,389.8 304.0,393.9 310.2,379.7 316.4,349.3 322.6,390.7 328.9,386.7 335.1,372.0 341.3,377.8 347.6,405.5 353.8,418.5 360.0,418.1 366.2,417.1 372.5,416.8 378.7,416.4 384.9,415.7 391.1,415.1 397.4,415.1 403.6,414.5 409.8,412.0 416.1,399.9 422.3,378.7 428.5,360.7 434.7,334.5 441.0,349.5 447.2,342.5 453.4,355.4 459.7,331.3 465.9,336.6 472.1,331.0 478.3,335.6 484.6,376.1 490.8,407.7 497.0,418.5 503.2,418.7 509.5,416.9 515.7,416.2 521.9,415.8 528.2,415.4 534.4,415.6 540.6,415.7 546.8,415.8 553.1,415.7 559.3,414.8 565.5,408.6 571.7,396.9 578.0,375.7 584.2,373.9 590.4,357.1 596.7,322.0 602.9,281.2 609.1,271.0 615.3,283.6 621.6,290.9 627.8,324.4 634.0,359.7 640.3,391.3 646.5,415.8 652.7,421.1 658.9,420.1 665.2,419.1 671.4,418.3 677.6,418.3 683.8,418.5 690.1,419.2 696.3,420.3 702.5,420.8 708.8,418.7 715.0,405.4 721.2,373.5 727.4,343.1 733.7,316.4 739.9,290.5 746.1,277.4 752.3,268.9 758.6,269.6 764.8,299.4 771.0,301.0 777.3,331.0 783.5,351.7 789.7,381.9 795.9,407.0 802.2,417.4 808.4,416.6 814.6,415.6 820.9,414.7 827.1,414.0 833.3,413.2 839.5,412.6 845.8,412.2 852.0,412.0 858.2,410.3 864.4,399.0 870.7,374.9 876.9,346.7 883.1,319.9 889.4,308.3 895.6,334.4 901.8,373.8 908.0,339.1 914.3,300.0 920.5,302.2 926.7,323.0 932.9,356.6 939.2,390.2 945.4,407.5 951.6,417.7 957.9,418.0 964.1,417.4 970.3,416.2 976.5,415.4 982.8,415.2 989.0,414.6 995.2,414.2 1001.4,413.6 1007.7,412.2 1013.9,406.7 1020.1,397.0 1026.4,376.4 1032.6,352.7 1038.8,384.7 1045.0,376.5 1051.3,351.5 1057.5,320.3 1063.7,289.9 1070.0,316.4 1076.2,349.6 1082.4,389.2 1088.6,387.0 1094.9,407.6 1101.1,416.8 1107.3,414.5 1113.5,413.5 1119.8,413.0 1126.0,412.8" fill="none" stroke="#7b5ea7" stroke-width="2.2" stroke-linejoin="round" stroke-linecap="round"/>
<polyline points="86.0,389.7 92.2,389.8 98.5,389.8 104.7,389.9 110.9,389.8 117.1,388.4 123.4,386.9 129.6,380.4 135.8,371.9 142.0,368.5 148.3,372.2 154.5,376.1 160.7,371.8 167.0,374.0 173.2,376.4 179.4,376.7 185.6,379.0 191.9,380.8 198.1,385.7 204.3,388.6 210.6,388.8 216.8,389.0 223.0,389.1 229.2,389.2 235.5,389.4 241.7,389.5 247.9,389.6 254.1,389.7 260.4,389.6 266.6,387.8 272.8,386.1 279.1,385.7 285.3,382.8 291.5,381.5 297.7,372.2 304.0,348.7 310.2,350.5 316.4,361.8 322.6,377.6 328.9,381.4 335.1,381.3 341.3,382.3 347.6,386.5 353.8,389.1 360.0,389.3 366.2,389.4 372.5,389.5 378.7,389.5 384.9,389.6 391.1,389.7 397.4,389.7 403.6,389.7 409.8,389.7 416.1,387.6 422.3,383.8 428.5,380.4 434.7,376.9 441.0,378.2 447.2,377.5 453.4,378.6 459.7,349.6 465.9,345.1 472.1,366.3 478.3,376.9 484.6,381.5 490.8,386.4 497.0,388.9 503.2,389.1 509.5,389.3 515.7,389.3 521.9,389.4 528.2,389.5 534.4,389.5 540.6,389.6 546.8,389.6 553.1,389.6 559.3,389.5 565.5,388.9 571.7,386.7 578.0,382.6 584.2,370.3 590.4,363.3 596.7,371.0 602.9,372.8 609.1,373.6 615.3,374.4 621.6,374.2 627.8,375.0 634.0,377.0 640.3,381.3 646.5,387.0 652.7,388.2 658.9,388.5 665.2,388.6 671.4,388.7 677.6,388.8 683.8,388.8 690.1,388.9 696.3,388.8 702.5,388.8 708.8,388.9 715.0,387.6 721.2,382.9 727.4,378.7 733.7,375.4 739.9,373.2 746.1,372.0 752.3,371.0 758.6,370.3 764.8,371.7 771.0,372.0 777.3,374.0 783.5,375.9 789.7,380.3 795.9,386.0 802.2,388.2 808.4,388.5 814.6,388.6 820.9,388.8 827.1,388.9 833.3,389.0 839.5,389.2 845.8,389.3 852.0,389.4 858.2,389.4 864.4,387.0 870.7,381.8 876.9,376.7 883.1,373.8 889.4,373.1 895.6,374.7 901.8,366.7 908.0,331.6 914.3,332.9 920.5,362.5 926.7,373.9 932.9,377.6 939.2,382.3 945.4,386.5 951.6,388.3 957.9,388.6 964.1,388.9 970.3,389.0 976.5,389.2 982.8,389.3 989.0,389.4 995.2,389.5 1001.4,389.6 1007.7,389.7 1013.9,388.8 1020.1,386.4 1026.4,381.7 1032.6,376.6 1038.8,381.2 1045.0,380.8 1051.3,378.0 1057.5,374.9 1063.7,372.3 1070.0,374.3 1076.2,377.5 1082.4,382.5 1088.6,382.5 1094.9,386.4 1101.1,388.8 1107.3,389.2 1113.5,389.4 1119.8,389.4 1126.0,389.5" fill="none" stroke="#1b9e77" stroke-width="2.2" stroke-linejoin="round" stroke-linecap="round"/>
<line x1="104" y1="130" x2="138" y2="130" stroke="#2f6fb0" stroke-width="3"/><text x="148" y="135" font-family="Arial" font-size="13" fill="#172033">Net Radiation Available (QN)</text>
<line x1="434" y1="130" x2="468" y2="130" stroke="#6d6d6d" stroke-width="3" stroke-dasharray="6 5"/><text x="478" y="135" font-family="Arial" font-size="13" fill="#172033">Human-Made Heat (QF)</text>
<line x1="764" y1="130" x2="798" y2="130" stroke="#d6604d" stroke-width="3"/><text x="808" y="135" font-family="Arial" font-size="13" fill="#172033">Heat to Air (QH)</text>
<line x1="104" y1="154" x2="138" y2="154" stroke="#7b5ea7" stroke-width="3"/><text x="148" y="159" font-family="Arial" font-size="13" fill="#172033">Stored in Urban Fabric (QS)</text>
<line x1="434" y1="154" x2="468" y2="154" stroke="#1b9e77" stroke-width="3"/><text x="478" y="159" font-family="Arial" font-size="13" fill="#172033">Evaporation / Plant Cooling (QE)</text>
<rect x="72" y="498" width="486" height="302" rx="10" fill="#fbfcfe" stroke="#dbe4ee"/>
<text x="82" y="530" font-family="Arial" font-size="20" font-weight="700" fill="#172033">Sunny-Hour Energy Split</text>
<line x1="100" y1="740.0" x2="530" y2="740.0" stroke="#e8edf3"/>
<text x="90" y="744.0" text-anchor="end" font-family="Arial" font-size="11" fill="#526173">0%</text>
<line x1="100" y1="695.0" x2="530" y2="695.0" stroke="#e8edf3"/>
<text x="90" y="699.0" text-anchor="end" font-family="Arial" font-size="11" fill="#526173">20%</text>
<line x1="100" y1="650.0" x2="530" y2="650.0" stroke="#e8edf3"/>
<text x="90" y="654.0" text-anchor="end" font-family="Arial" font-size="11" fill="#526173">40%</text>
<line x1="100" y1="605.0" x2="530" y2="605.0" stroke="#e8edf3"/>
<text x="90" y="609.0" text-anchor="end" font-family="Arial" font-size="11" fill="#526173">60%</text>
<line x1="100" y1="560.0" x2="530" y2="560.0" stroke="#e8edf3"/>
<text x="90" y="564.0" text-anchor="end" font-family="Arial" font-size="11" fill="#526173">80%</text>
<rect x="156" y="591.9" width="86" height="148.1" fill="#d6604d"/>
<text x="199.0" y="563.9" text-anchor="middle" font-family="Arial" font-size="15" font-weight="700" fill="#172033">66%</text>
<text x="199.0" y="581.9" text-anchor="middle" font-family="Arial" font-size="12" fill="#526173">188 W m-2</text>
<text x="199.0" y="766" text-anchor="middle" font-family="Arial" font-size="12" fill="#334155">Heat to Air
QH</text>
<rect x="288" y="685.1" width="86" height="54.9" fill="#7b5ea7"/>
<text x="331.0" y="657.1" text-anchor="middle" font-family="Arial" font-size="15" font-weight="700" fill="#172033">24%</text>
<text x="331.0" y="675.1" text-anchor="middle" font-family="Arial" font-size="12" fill="#526173">70 W m-2</text>
<text x="331.0" y="766" text-anchor="middle" font-family="Arial" font-size="12" fill="#334155">Stored in Buildings
and Paving QS</text>
<rect x="420" y="718.0" width="86" height="22.0" fill="#1b9e77"/>
<text x="463.0" y="690.0" text-anchor="middle" font-family="Arial" font-size="15" font-weight="700" fill="#172033">10%</text>
<text x="463.0" y="708.0" text-anchor="middle" font-family="Arial" font-size="12" fill="#526173">28 W m-2</text>
<text x="463.0" y="766" text-anchor="middle" font-family="Arial" font-size="12" fill="#334155">Evaporation /
Plant Cooling QE</text>
<rect x="632" y="498" width="486" height="302" rx="10" fill="#fbfcfe" stroke="#dbe4ee"/>
<text x="642" y="530" font-family="Arial" font-size="20" font-weight="700" fill="#172033">Air and Surface Temperature</text>
<line x1="660" y1="735.9" x2="1090" y2="735.9" stroke="#e8edf3"/>
<text x="650" y="739.9" text-anchor="end" font-family="Arial" font-size="11" fill="#526173">17.5</text>
<line x1="660" y1="695.0" x2="1090" y2="695.0" stroke="#e8edf3"/>
<text x="650" y="699.0" text-anchor="end" font-family="Arial" font-size="11" fill="#526173">22.5</text>
<line x1="660" y1="654.1" x2="1090" y2="654.1" stroke="#e8edf3"/>
<text x="650" y="658.1" text-anchor="end" font-family="Arial" font-size="11" fill="#526173">27.5</text>
<line x1="660" y1="613.2" x2="1090" y2="613.2" stroke="#e8edf3"/>
<text x="650" y="617.2" text-anchor="end" font-family="Arial" font-size="11" fill="#526173">32.5</text>
<line x1="660" y1="572.3" x2="1090" y2="572.3" stroke="#e8edf3"/>
<text x="650" y="576.3" text-anchor="end" font-family="Arial" font-size="11" fill="#526173">37.5</text>
<text x="660.0" y="762" text-anchor="middle" font-family="Arial" font-size="11" fill="#526173">14 Aug</text>
<text x="719.2" y="762" text-anchor="middle" font-family="Arial" font-size="11" fill="#526173">15 Aug</text>
<text x="781.0" y="762" text-anchor="middle" font-family="Arial" font-size="11" fill="#526173">16 Aug</text>
<text x="842.8" y="762" text-anchor="middle" font-family="Arial" font-size="11" fill="#526173">17 Aug</text>
<text x="904.6" y="762" text-anchor="middle" font-family="Arial" font-size="11" fill="#526173">18 Aug</text>
<text x="966.4" y="762" text-anchor="middle" font-family="Arial" font-size="11" fill="#526173">19 Aug</text>
<text x="1028.2" y="762" text-anchor="middle" font-family="Arial" font-size="11" fill="#526173">20 Aug</text>
<text x="1090.0" y="762" text-anchor="middle" font-family="Arial" font-size="11" fill="#526173">21 Aug</text>
<polyline points="660.0,717.7 662.6,720.1 665.1,719.6 667.7,718.7 670.3,721.2 672.9,722.7 675.4,720.8 678.0,718.1 680.6,718.5 683.2,716.1 685.7,704.0 688.3,696.3 690.9,695.0 693.5,681.5 696.0,675.7 698.6,676.4 701.2,669.6 703.8,668.3 706.3,675.3 708.9,680.5 711.5,686.5 714.1,693.2 716.6,695.7 719.2,700.1 721.8,705.2 724.4,709.0 726.9,712.7 729.5,715.2 732.1,717.7 734.7,715.4 737.2,709.3 739.8,703.6 742.4,695.5 745.0,688.4 747.5,687.0 750.1,689.7 752.7,687.4 755.3,681.4 757.8,679.0 760.4,681.5 763.0,691.3 765.6,698.3 768.1,701.6 770.7,706.2 773.3,711.4 775.9,715.9 778.4,719.4 781.0,721.2 783.6,723.1 786.2,724.6 788.7,726.6 791.3,729.9 793.9,731.6 796.5,730.4 799.0,724.4 801.6,715.0 804.2,704.3 806.8,700.2 809.3,699.6 811.9,699.2 814.5,701.2 817.1,698.9 819.6,687.8 822.2,684.5 824.8,688.7 827.4,694.9 829.9,700.6 832.5,705.9 835.1,710.6 837.7,713.8 840.2,714.8 842.8,715.3 845.4,716.5 848.0,719.1 850.5,719.0 853.1,717.0 855.7,715.5 858.3,714.2 860.8,712.7 863.4,706.3 866.0,702.9 868.6,696.7 871.1,683.0 873.7,666.7 876.3,654.4 878.9,649.1 881.4,645.7 884.0,642.4 886.6,639.5 889.2,643.3 891.7,651.6 894.3,660.9 896.9,669.1 899.5,674.2 902.0,676.2 904.6,676.0 907.2,677.4 909.8,677.2 912.3,677.2 914.9,679.1 917.5,682.3 920.1,685.9 922.6,688.6 925.2,687.3 927.8,681.1 930.4,666.8 932.9,654.6 935.5,644.9 938.1,634.9 940.7,629.4 943.2,627.6 945.8,636.1 948.4,634.9 951.0,631.5 953.5,637.8 956.1,645.8 958.7,654.7 961.3,663.1 963.8,666.9 966.4,675.9 969.0,684.1 971.6,689.2 974.1,693.8 976.7,698.7 979.3,701.8 981.9,705.3 984.4,707.1 987.0,700.8 989.6,687.1 992.2,674.0 994.7,664.6 997.3,656.1 999.9,656.0 1002.5,660.8 1005.0,654.5 1007.6,639.0 1010.2,632.1 1012.8,633.3 1015.3,636.4 1017.9,644.9 1020.5,659.1 1023.1,672.3 1025.6,682.2 1028.2,690.3 1030.8,697.3 1033.4,704.4 1035.9,709.8 1038.5,714.2 1041.1,717.6 1043.7,720.4 1046.2,720.3 1048.8,715.3 1051.4,710.0 1054.0,701.9 1056.5,696.7 1059.1,690.0 1061.7,683.3 1064.3,679.6 1066.8,677.9 1069.4,670.1 1072.0,668.0 1074.6,668.4 1077.1,669.0 1079.7,678.6 1082.3,690.6 1084.9,699.7 1087.4,709.6 1090.0,716.1" fill="none" stroke="#1f78b4" stroke-width="2.5" stroke-linejoin="round" stroke-linecap="round"/>
<polyline points="660.0,701.6 662.6,706.8 665.1,708.9 667.7,708.6 670.3,709.4 672.9,708.8 675.4,702.2 678.0,685.4 680.6,660.9 683.2,643.7 685.7,641.8 688.3,642.9 690.9,622.2 693.5,624.5 696.0,627.9 698.6,623.7 701.2,628.2 703.8,636.2 706.3,650.5 708.9,661.9 711.5,669.7 714.1,675.7 716.6,681.4 719.2,687.9 721.8,697.0 724.4,702.1 726.9,705.2 729.5,708.5 732.1,711.8 734.7,708.9 737.2,701.3 739.8,692.7 742.4,680.6 745.0,671.3 747.5,674.6 750.1,682.7 752.7,676.0 755.3,661.1 757.8,665.3 760.4,668.6 763.0,675.1 765.6,681.2 768.1,689.3 770.7,697.9 773.3,703.7 775.9,708.3 778.4,712.3 781.0,714.6 783.6,717.6 786.2,720.4 788.7,722.6 791.3,725.5 793.9,726.5 796.5,723.3 799.0,712.8 801.6,698.0 804.2,680.9 806.8,677.7 809.3,674.7 811.9,675.5 814.5,681.3 817.1,680.4 819.6,665.6 822.2,660.2 824.8,667.7 827.4,679.1 829.9,687.9 832.5,694.1 835.1,698.5 837.7,700.8 840.2,702.0 842.8,705.2 845.4,709.1 848.0,713.9 850.5,714.9 853.1,712.6 855.7,710.9 858.3,709.2 860.8,704.8 863.4,692.7 866.0,690.1 868.6,682.4 871.1,659.5 873.7,634.4 876.3,621.6 878.9,617.0 881.4,609.7 884.0,606.1 886.6,607.1 889.2,618.6 891.7,634.3 894.3,645.2 896.9,653.5 899.5,659.3 902.0,661.7 904.6,664.3 907.2,667.9 909.8,671.4 912.3,673.9 914.9,676.0 917.5,677.6 920.1,675.9 922.6,666.3 925.2,646.6 927.8,620.2 930.4,600.1 932.9,588.9 935.5,579.1 938.1,570.4 940.7,571.5 943.2,570.5 945.8,575.0 948.4,581.1 951.0,596.5 953.5,613.2 956.1,628.0 958.7,637.1 961.3,641.2 963.8,648.0 966.4,652.8 969.0,655.0 971.6,666.1 974.1,670.7 976.7,676.7 979.3,682.7 981.9,683.6 984.4,672.7 987.0,646.2 989.6,615.9 992.2,595.1 994.7,588.1 997.3,612.1 999.9,625.4 1002.5,596.2 1005.0,574.3 1007.6,585.2 1010.2,596.0 1012.8,608.7 1015.3,620.9 1017.9,634.9 1020.5,651.5 1023.1,664.2 1025.6,670.7 1028.2,678.2 1030.8,685.1 1033.4,691.6 1035.9,697.8 1038.5,702.9 1041.1,707.4 1043.7,707.0 1046.2,700.5 1048.8,684.9 1051.4,666.1 1054.0,671.5 1056.5,672.5 1059.1,662.9 1061.7,647.5 1064.3,626.9 1066.8,618.5 1069.4,623.8 1072.0,636.0 1074.6,633.2 1077.1,645.3 1079.7,664.7 1082.3,679.2 1084.9,687.1 1087.4,690.4 1090.0,692.6" fill="none" stroke="#e07a2f" stroke-width="2.5" stroke-linejoin="round" stroke-linecap="round"/>
<text x="682" y="582" font-family="Arial" font-size="13" fill="#1f78b4">Near-Surface Air Temperature (T2)</text>
<text x="682" y="604" font-family="Arial" font-size="13" fill="#e07a2f">Surface Temperature (Ts)</text>
</svg>
